HIERARCHY
ROOT Bip001_Pelvis
{
  OFFSET 34.4345 95.6767 -26.8758
  CHANNELS 6 Xposition Yposition Zposition Zrotation Xrotation Yrotation
  JOINT Bip001_Spine
  {
    OFFSET 1.4188e-005 10.2191 -0.0116013
    CHANNELS 3 Zrotation Xrotation Yrotation
    JOINT Bip001_L_Thigh
    {
      OFFSET 11.0458 -10.2192 0.0116197
      CHANNELS 3 Zrotation Xrotation Yrotation
      JOINT Bip001_L_Calf
      {
        OFFSET -0.707118 -44.0221 0.360014
        CHANNELS 3 Zrotation Xrotation Yrotation
        JOINT Bip001_L_Foot
        {
          OFFSET -0.651902 -40.5938 -3.56146
          CHANNELS 3 Zrotation Xrotation Yrotation
          JOINT Bip001_L_Toe0
          {
            OFFSET 0.0530839 -10.2181 13.1504
            CHANNELS 3 Zrotation Xrotation Yrotation
            End Site
            {
              OFFSET -1.02532e-005 0 7.55606
            }
          }
        }
      }
    }
    JOINT Bip001_R_Thigh
    {
      OFFSET -11.0458 -10.2191 0.0115893
      CHANNELS 3 Zrotation Xrotation Yrotation
      JOINT Bip001_R_Calf
      {
        OFFSET 0.706994 -44.0221 0.35984
        CHANNELS 3 Zrotation Xrotation Yrotation
        JOINT Bip001_R_Foot
        {
          OFFSET 0.651786 -40.5938 -3.5613
          CHANNELS 3 Zrotation Xrotation Yrotation
          JOINT Bip001_R_Toe0
          {
            OFFSET -0.0531479 -10.2181 13.1504
            CHANNELS 3 Zrotation Xrotation Yrotation
            End Site
            {
              OFFSET -1.02894e-005 0 7.55606
            }
          }
        }
      }
    }
    JOINT Bip001_Spine1
    {
      OFFSET 1.87041e-005 14.5736 1.08638
      CHANNELS 3 Zrotation Xrotation Yrotation
      JOINT Bip001_Spine2
      {
        OFFSET 2.24614e-005 14.5058 -1.69078
        CHANNELS 3 Zrotation Xrotation Yrotation
        JOINT Bip001_Neck
        {
          OFFSET 2.20278e-005 15.3945 -0.489414
          CHANNELS 3 Zrotation Xrotation Yrotation
          JOINT Bip001_L_Clavicle
          {
            OFFSET 6.06036 -0.000579998 0.00836775
            CHANNELS 3 Zrotation Xrotation Yrotation
            JOINT Bip001_L_UpperArm
            {
              OFFSET 11.5509 -0.0600302 0.00193952
              CHANNELS 3 Zrotation Xrotation Yrotation
              JOINT Bip001_L_Forearm
              {
                OFFSET 25.9523 0.0806089 -2.15551
                CHANNELS 3 Zrotation Xrotation Yrotation
                JOINT Bip001_L_Hand
                {
                  OFFSET 32.2475 0.153767 1.63968
                  CHANNELS 3 Zrotation Xrotation Yrotation
                  JOINT Bip001_L_Finger0
                  {
                    OFFSET 6.04639 -2.20976 5.90322
                    CHANNELS 3 Zrotation Xrotation Yrotation
                    End Site
                    {
                      OFFSET 4.22375 -1.43895 0.606485
                    }
                  }
                  JOINT Bip001_L_Finger1
                  {
                    OFFSET 11.0826 -0.704819 -0.198153
                    CHANNELS 3 Zrotation Xrotation Yrotation
                    End Site
                    {
                      OFFSET 6.20027 -0.397518 -0.0787166
                    }
                  }
                }
              }
            }
          }
          JOINT Bip001_R_Clavicle
          {
            OFFSET -6.06037 -0.000563197 0.00835105
            CHANNELS 3 Zrotation Xrotation Yrotation
            JOINT Bip001_R_UpperArm
            {
              OFFSET -11.5509 -0.0599978 0.00190698
              CHANNELS 3 Zrotation Xrotation Yrotation
              JOINT Bip001_R_Forearm
              {
                OFFSET -25.9523 0.0806822 -2.15589
                CHANNELS 3 Zrotation Xrotation Yrotation
                JOINT Bip001_R_Hand
                {
                  OFFSET -32.2475 0.153859 1.63989
                  CHANNELS 3 Zrotation Xrotation Yrotation
                  JOINT Bip001_R_Finger0
                  {
                    OFFSET -6.04641 -2.20976 5.90317
                    CHANNELS 3 Zrotation Xrotation Yrotation
                    End Site
                    {
                      OFFSET -4.22376 -1.43895 0.60647
                    }
                  }
                  JOINT Bip001_R_Finger1
                  {
                    OFFSET -11.0826 -0.704794 -0.198182
                    CHANNELS 3 Zrotation Xrotation Yrotation
                    End Site
                    {
                      OFFSET -6.20028 -0.397504 -0.0787333
                    }
                  }
                }
              }
            }
          }
          JOINT Bip001_Head
          {
            OFFSET 1.09673e-005 11.2744 2.05948
            CHANNELS 3 Zrotation Xrotation Yrotation
            End Site
            {
              OFFSET 2.89576e-005 20.8808 -2.77728e-005
            }
          }
        }
      }
    }
  }
}
MOTION
Frames:	9
Frame Time:	0.04
34.1761 95.2674 -30.3853 -3.36658 -3.01311 -15.9708 -0.0662599 3.19649 -1.3573 7.79439 0.820704 16.6835 -0.577841 13.5109 9.20768 2.49804 -7.53588 0.107587 1.75006 -5.76211 -0.630028 -2.25945 -6.00153 3.95194 -0.983156 13.0581 1.85838 -4.67128 -6.9536 3.47853 2.77565 -9.6416 3.5372 -0.0566359 6.39361 -2.71728 -0.0566364 6.39367 -2.71729 3.5183 0.42715 5.22406 -24.9068 3.85241 -8.65456 -49.14 38.2185 0.00996484 14.3691 -3.68563 -26.2343 7.20663 2.06638 -3.09693 3.18055e-015 -1.59028e-015 7.95139e-016 -0 0 7.95139e-016 22.4528 3.97931 11.6396 71.9377 25.1559 -13.2299 -19.7954 11.2767 9.75481 11.8621 -8.71822 8.43473 3.97569e-016 -3.18055e-015 7.95139e-016 8.82782e-032 -6.36111e-015 7.95139e-016 -2.27795 -6.21113 6.64001 
34.0955 95.2248 -30.2857 -3.14818 -3.22493 -16.8804 -0.00652328 3.1776 -1.5752 7.27662 1.37361 15.6366 -0.851132 13.215 11.1968 2.42852 -7.37686 0.100954 1.61837 -5.81005 -0.488833 -2.65159 -6.18806 4.69842 -0.745868 13.5988 1.96226 -4.67876 -7.40118 3.66368 2.7737 -9.64193 3.50439 0.0747739 6.3541 -3.15734 0.0747751 6.35424 -3.15736 3.4943 0.836734 6.42662 -24.5782 3.80502 -9.45668 -49.5757 38.263 0.177308 14.9651 -3.23663 -28.0395 7.71335 1.83284 -3.31981 -6.36111e-015 6.36111e-015 -7.95139e-016 -6.36111e-015 1.59028e-015 -7.95139e-016 22.3637 2.94397 10.1017 74.8476 26.0972 -14.7913 -20.1949 7.86679 9.89435 11.2642 -8.26472 7.99161 -1.19271e-015 -3.18055e-015 2.38542e-015 -3.18055e-015 -3.18056e-015 2.38542e-015 -2.1645 -6.88944 7.82168 
34.0976 95.135 -30.1967 -2.86457 -3.55448 -17.6681 0.0594861 3.20008 -1.72999 6.66962 1.73337 17.6373 -0.594424 13.2825 9.73449 3.75574 -6.71285 0.075304 1.62908 -6.50435 -0.469628 -3.1445 -6.59658 4.86114 -0.711065 14.6813 2.41407 -4.81062 -8.03409 3.98963 2.80816 -9.74408 3.53443 0.216363 6.39691 -3.47147 0.216367 6.39709 -3.47149 3.47381 1.3183 7.46074 -24.2174 3.7288 -10.5934 -50.1802 38.2558 0.199516 15.8105 -3.22182 -29.6935 8.08616 1.61208 -4.17119 -6.36111e-015 -1.59028e-015 1.59028e-015 -3.18055e-015 -1.59028e-015 -0 22.6469 1.8737 8.5638 75.3636 25.0382 -15.4102 -20.9476 5.15119 10.7049 11.1406 -8.68433 7.92888 -3.97569e-016 0 3.97569e-016 -9.93923e-016 -1.59028e-015 7.95139e-016 -1.93059 -7.94237 8.82693 
34.1518 94.9853 -30.1731 -2.74688 -3.85454 -18.5912 0.136116 3.23359 -1.85529 6.37553 1.8134 17.9923 -0.711204 14.0899 10.5122 3.3817 -7.42169 0.0962123 1.73839 -6.43748 -0.427455 -3.34525 -7.23701 5.77542 -0.728744 16.0965 2.51515 -5.07019 -8.60806 4.01637 2.90628 -10.0111 3.60333 0.378151 6.46103 -3.72718 0.37815 6.46071 -3.72718 3.35052 1.44809 8.45507 -23.8118 3.86966 -11.266 -50.574 37.8595 0.124917 16.1556 -3.3728 -31.4777 8.4887 1.42643 -5.11325 3.18055e-015 7.95139e-016 1.59028e-015 -3.31043e-032 7.95139e-016 2.38542e-015 22.6026 1.14661 7.05319 75.2289 24.4632 -15.5738 -22.0107 2.1954 11.4947 10.577 -9.1514 7.81827 8.94531e-016 1.59028e-015 -1.98785e-016 8.94531e-016 -3.18056e-015 -5.96354e-016 -1.53944 -8.52837 9.72789 
34.2832 94.7798 -30.2695 -2.67034 -4.01538 -18.9595 0.249228 3.27835 -2.00482 6.2881 1.19327 17.1685 -1.1178 15.6102 11.7777 3.57582 -8.02504 0.118505 1.68052 -6.55812 -0.30329 -3.48752 -8.03588 6.40536 -0.755623 17.5933 2.77536 -5.47135 -9.13557 3.69946 3.00525 -10.3025 3.70692 0.614905 6.5459 -4.03385 0.614907 6.5459 -4.03386 3.11147 1.24416 9.35876 -23.2835 4.33118 -12.0129 -50.6389 37.3211 -0.265532 16.0402 -3.737 -33.2104 9.37441 1.37695 -5.71413 3.18055e-015 7.95139e-016 1.98785e-015 -3.18055e-015 7.95139e-016 2.78299e-015 22.5159 0.923437 6.08497 74.3353 22.967 -15.5588 -24.2562 1.53484 13.7028 8.53976 -10.0632 6.58986 5.90142e-017 7.95139e-016 6.21202e-018 1.25017e-016 7.95139e-016 1.2424e-017 -1.11313 -8.98482 10.4902 
34.4624 94.5048 -30.2982 -2.79915 -4.55712 -18.9634 0.371126 3.3951 -2.08013 6.39449 0.731561 16.6821 -1.62694 17.5068 12.177 4.21237 -8.73898 0.149499 1.55743 -6.87173 -0.0628726 -3.56337 -8.47786 7.14686 -0.736451 19.2993 2.89829 -5.99128 -9.68647 3.00861 3.1394 -10.6699 3.81068 0.867992 6.77435 -4.19332 0.867994 6.77437 -4.19333 3.08504 0.995661 9.8756 -22.9376 4.81107 -12.8163 -50.5023 36.504 -0.888694 17.1816 -2.27321 -34.5887 8.24547 1.17753 -5.83265 9.54166e-015 -3.18055e-015 -9.93923e-016 3.18055e-015 -2.78299e-015 -5.96354e-016 21.8662 0.889394 5.31065 71.3738 19.9017 -14.6442 -25.091 4.24276 18.3875 2.43165 -11.6322 4.50687 5.96354e-016 -7.95139e-016 -3.97569e-016 1.73937e-015 0 -3.97569e-016 -1.13612 -9.52347 10.9891 
34.7864 94.2265 -30.2416 -2.81295 -5.34532 -18.7779 0.426825 3.5043 -2.10134 6.33874 0.511472 16.9308 -1.92723 19.4052 11.876 4.15702 -9.92522 0.189344 1.40901 -6.57822 -0.0878289 -3.95315 -8.6986 7.7829 -0.521532 21.043 2.94848 -6.49503 -10.2824 2.21421 3.24526 -10.9953 3.94715 0.985071 6.99041 -4.24228 0.985052 6.99044 -4.24157 2.93554 0.871727 10.2182 -22.3097 5.09207 -13.722 -50.8469 36.0905 -0.849905 18.3492 -1.06714 -36.1515 8.46819 1.36935 -5.99648 6.36111e-015 -1.76421e-015 -3.10601e-015 3.18055e-015 -2.0127e-015 -9.69075e-016 22.4565 0.701048 4.51833 68.1743 17.6883 -14.5735 -27.4448 4.03795 23.523 -3.23043 -12.5653 3.20434 3.47873e-016 0 -0 4.47265e-016 -3.97569e-016 -1.59028e-015 -1.07502 -10.0354 11.2781 
35.1538 94.0418 -30.1185 -3.02344 -6.23698 -18.0897 0.494118 3.62734 -2.17591 6.41371 0.686895 17.1213 -2.33078 20.5654 11.1529 5.0628 -10.2855 0.234087 1.59561 -6.90902 -0.23101 -4.30029 -8.18331 7.81618 -0.401412 21.8811 3.00085 -6.8295 -10.5567 1.5899 3.36602 -11.2757 3.97364 1.12945 7.23306 -4.39865 1.12944 7.23308 -4.39788 3.03027 0.622113 10.4712 -21.8383 5.4635 -14.4758 -51.3703 35.4842 -0.245763 20.2079 0.765722 -38.2032 8.43671 1.60193 -6.40174 -9.54166e-015 1.59028e-015 2.78299e-015 -1.27222e-014 7.95139e-016 7.95139e-016 22.5142 0.87567 4.27068 65.0457 13.6063 -13.9088 -29.4909 3.19206 28.2625 -7.82051 -12.5705 2.76188 -3.72721e-015 -6.95746e-016 1.59028e-015 7.20594e-016 -7.95139e-016 1.59028e-015 -1.48802 -10.0314 11.6001 
35.568 93.8782 -30.0768 -3.21318 -6.63536 -17.1854 0.583456 3.65687 -2.18163 6.73887 0.358078 16.2293 -3.20697 21.8517 11.4175 5.47496 -11.0396 0.284789 1.56215 -6.81401 -0.358446 -4.49334 -7.85743 7.74005 -0.363616 22.3268 3.0575 -7.19287 -10.5756 0.833889 3.51816 -11.6709 4.07589 1.31047 7.28858 -4.41113 1.3105 7.2886 -4.41271 3.22025 0.248176 10.4932 -21.4678 5.89848 -15.0593 -51.6639 34.9404 0.326851 22.8695 3.3533 -40.5785 8.17656 1.38797 -6.97678 6.36111e-015 2.38542e-015 -7.95139e-016 3.18055e-015 3.18056e-015 -7.95139e-016 22.5403 1.38176 4.558 61.5792 7.14344 -13.2541 -31.4173 2.79057 33.8762 -11.9417 -12.8454 1.80615 -9.54166e-015 7.95139e-016 3.18055e-015 -4.37326e-015 7.95139e-016 -0 -2.14057 -9.56621 11.7521 
